<svg width="39" height="38" viewBox="0 0 39 38" fill="none" xmlns="http://www.w3.org/2000/svg">
<path d="M37.7056 4.01221H31.236C31.1065 4.01221 30.9822 4.06197 30.8906 4.15055C30.7989 4.23914 30.7475 4.35928 30.7475 4.48455C30.7475 4.60982 30.7989 4.72997 30.8906 4.81855C30.9822 4.90713 31.1065 4.9569 31.236 4.9569H37.7056C37.7658 4.9569 37.814 5.00349 37.814 5.06174V11.808H1.76038V5.06174C1.76067 5.03384 1.77234 5.00717 1.79285 4.98754C1.81336 4.96791 1.84106 4.95689 1.86992 4.9569H8.68784C8.81741 4.9569 8.94168 4.90713 9.0333 4.81855C9.12492 4.72997 9.1764 4.60982 9.1764 4.48455C9.1764 4.35928 9.12492 4.23914 9.0333 4.15055C8.94168 4.06197 8.81741 4.01221 8.68784 4.01221H1.86992C1.582 4.01249 1.30594 4.12312 1.10225 4.31985C0.898552 4.51659 0.783844 4.78338 0.783264 5.06174V36.3402C0.783264 36.9206 1.27073 37.3919 1.86992 37.3919H37.7056C37.9937 37.3913 38.2698 37.2803 38.4733 37.0831C38.6769 36.886 38.7912 36.6188 38.7912 36.3402V5.06174C38.7906 4.78356 38.676 4.51693 38.4726 4.32023C38.2691 4.12352 37.9933 4.01277 37.7056 4.01221ZM37.7056 36.4472H1.86992C1.85545 36.4472 1.84111 36.4444 1.82775 36.439C1.81439 36.4337 1.80226 36.4258 1.79208 36.4158C1.78189 36.4059 1.77384 36.3941 1.7684 36.3811C1.76296 36.3681 1.76024 36.3542 1.76038 36.3402V12.7516H37.814V36.3392C37.8143 36.3532 37.8118 36.3671 37.8064 36.3801C37.8011 36.3931 37.7932 36.405 37.7831 36.4151C37.773 36.4251 37.761 36.4331 37.7477 36.4386C37.7344 36.4442 37.7201 36.4471 37.7056 36.4472Z" fill="black"/>
<path d="M13.3675 4.95683H26.4074C26.537 4.95683 26.6612 4.90707 26.7529 4.81848C26.8445 4.7299 26.896 4.60976 26.896 4.48449C26.896 4.35921 26.8445 4.23907 26.7529 4.15049C26.6612 4.06191 26.537 4.01214 26.4074 4.01214H13.3675C13.2379 4.01214 13.1136 4.06191 13.022 4.15049C12.9304 4.23907 12.8789 4.35921 12.8789 4.48449C12.8789 4.60976 12.9304 4.7299 13.022 4.81848C13.1136 4.90707 13.2379 4.95683 13.3675 4.95683ZM11.1503 8.22935C11.4198 8.22935 11.6389 8.01754 11.6389 7.75701V1.40472C11.6389 1.34269 11.6263 1.28127 11.6017 1.22396C11.5772 1.16665 11.5412 1.11458 11.4958 1.07072C11.4504 1.02686 11.3966 0.992066 11.3373 0.968328C11.278 0.944591 11.2145 0.932373 11.1503 0.932373C11.0862 0.932373 11.0227 0.944591 10.9634 0.968328C10.9041 0.992066 10.8503 1.02686 10.8049 1.07072C10.7595 1.11458 10.7235 1.16665 10.699 1.22396C10.6744 1.28127 10.6618 1.34269 10.6618 1.40472V7.75806C10.6618 8.01859 10.8809 8.22935 11.1503 8.22935ZM28.8458 8.22935C29.1153 8.22935 29.3344 8.01754 29.3344 7.75701V1.40472C29.3344 1.27944 29.2829 1.1593 29.1913 1.07072C29.0997 0.982138 28.9754 0.932373 28.8458 0.932373C28.7162 0.932373 28.592 0.982138 28.5003 1.07072C28.4087 1.1593 28.3573 1.27944 28.3573 1.40472V7.75806C28.3573 8.01859 28.5752 8.22935 28.8458 8.22935Z" fill="black"/>
<path d="M8.6254 19.8971C10.1125 19.8971 11.3179 18.7316 11.3179 17.2939C11.3179 15.8562 10.1125 14.6907 8.6254 14.6907C7.13834 14.6907 5.93285 15.8562 5.93285 17.2939C5.93285 18.7316 7.13834 19.8971 8.6254 19.8971Z" fill="black"/>
<path d="M16.3635 19.8971C17.8505 19.8971 19.056 18.7316 19.056 17.2939C19.056 15.8562 17.8505 14.6907 16.3635 14.6907C14.8764 14.6907 13.6709 15.8562 13.6709 17.2939C13.6709 18.7316 14.8764 19.8971 16.3635 19.8971Z" fill="black"/>
<path d="M24.1004 19.8971C25.5875 19.8971 26.793 18.7316 26.793 17.2939C26.793 15.8562 25.5875 14.6907 24.1004 14.6907C22.6134 14.6907 21.4079 15.8562 21.4079 17.2939C21.4079 18.7316 22.6134 19.8971 24.1004 19.8971Z" fill="black"/>
<path d="M8.6254 27.1463C10.1125 27.1463 11.3179 25.9808 11.3179 24.5431C11.3179 23.1054 10.1125 21.9399 8.6254 21.9399C7.13834 21.9399 5.93285 23.1054 5.93285 24.5431C5.93285 25.9808 7.13834 27.1463 8.6254 27.1463Z" fill="black"/>
<path d="M16.3635 27.1463C17.8505 27.1463 19.056 25.9808 19.056 24.5431C19.056 23.1054 17.8505 21.9399 16.3635 21.9399C14.8764 21.9399 13.6709 23.1054 13.6709 24.5431C13.6709 25.9808 14.8764 27.1463 16.3635 27.1463Z" fill="black"/>
<path d="M24.1004 27.1463C25.5875 27.1463 26.793 25.9808 26.793 24.5431C26.793 23.1054 25.5875 21.9399 24.1004 21.9399C22.6134 21.9399 21.4079 23.1054 21.4079 24.5431C21.4079 25.9808 22.6134 27.1463 24.1004 27.1463Z" fill="black"/>
<path d="M8.6254 34.3958C10.1125 34.3958 11.3179 33.2303 11.3179 31.7926C11.3179 30.3549 10.1125 29.1895 8.6254 29.1895C7.13834 29.1895 5.93285 30.3549 5.93285 31.7926C5.93285 33.2303 7.13834 34.3958 8.6254 34.3958Z" fill="black"/>
<path d="M16.3635 34.3958C17.8505 34.3958 19.056 33.2303 19.056 31.7926C19.056 30.3549 17.8505 29.1895 16.3635 29.1895C14.8764 29.1895 13.6709 30.3549 13.6709 31.7926C13.6709 33.2303 14.8764 34.3958 16.3635 34.3958Z" fill="black"/>
<path d="M24.1004 34.3958C25.5875 34.3958 26.793 33.2303 26.793 31.7926C26.793 30.3549 25.5875 29.1895 24.1004 29.1895C22.6134 29.1895 21.4079 30.3549 21.4079 31.7926C21.4079 33.2303 22.6134 34.3958 24.1004 34.3958Z" fill="black"/>
<path d="M31.6567 19.8971C33.1437 19.8971 34.3492 18.7316 34.3492 17.2939C34.3492 15.8562 33.1437 14.6907 31.6567 14.6907C30.1696 14.6907 28.9641 15.8562 28.9641 17.2939C28.9641 18.7316 30.1696 19.8971 31.6567 19.8971Z" fill="black"/>
<path d="M31.6567 27.1463C33.1437 27.1463 34.3492 25.9808 34.3492 24.5431C34.3492 23.1054 33.1437 21.9399 31.6567 21.9399C30.1696 21.9399 28.9641 23.1054 28.9641 24.5431C28.9641 25.9808 30.1696 27.1463 31.6567 27.1463Z" fill="black"/>
<path d="M31.6567 29.1895C31.3031 29.1895 30.9529 29.2568 30.6263 29.3876C30.2996 29.5184 30.0028 29.7102 29.7527 29.9519C29.5027 30.1936 29.3044 30.4806 29.1691 30.7964C29.0338 31.1123 28.9641 31.4508 28.9641 31.7926C28.9641 32.1345 29.0338 32.473 29.1691 32.7888C29.3044 33.1047 29.5027 33.3916 29.7527 33.6334C30.0028 33.8751 30.2996 34.0669 30.6263 34.1977C30.9529 34.3285 31.3031 34.3958 31.6567 34.3958C32.3708 34.3958 33.0556 34.1216 33.5606 33.6334C34.0655 33.1452 34.3492 32.4831 34.3492 31.7926C34.3492 31.1022 34.0655 30.4401 33.5606 29.9519C33.0556 29.4637 32.3708 29.1895 31.6567 29.1895ZM31.6567 33.3008C31.2431 33.3002 30.8467 33.1411 30.5543 32.8584C30.2619 32.5757 30.0974 32.1924 30.0968 31.7926C30.0968 30.9613 30.7968 30.2845 31.6567 30.2845C32.0603 30.2992 32.4423 30.4644 32.7225 30.7457C33.0026 31.0269 33.1592 31.4022 33.1592 31.7926C33.1592 32.1831 33.0026 32.5584 32.7225 32.8396C32.4423 33.1208 32.0603 33.2861 31.6567 33.3008Z" fill="black"/>
</svg>
