<svg width="40" height="38" viewBox="0 0 40 38" fill="none" xmlns="http://www.w3.org/2000/svg">
<path d="M20.135 33.1064C19.6585 33.1064 19.1867 33.0157 18.7464 32.8394C18.3062 32.6631 17.9062 32.4047 17.5693 32.079C17.2323 31.7532 16.9651 31.3665 16.7827 30.9409C16.6004 30.5153 16.5065 30.0591 16.5065 29.5984C16.5065 29.1377 16.6004 28.6816 16.7827 28.256C16.9651 27.8303 17.2323 27.4436 17.5693 27.1179C17.9062 26.7921 18.3062 26.5337 18.7464 26.3574C19.1867 26.1811 19.6585 26.0904 20.135 26.0904C21.0973 26.0904 22.0202 26.46 22.7007 27.1179C23.3811 27.7758 23.7634 28.668 23.7634 29.5984C23.7634 30.5288 23.3811 31.4211 22.7007 32.079C22.0202 32.7369 21.0973 33.1064 20.135 33.1064ZM20.135 30.7678C20.4558 30.7678 20.7634 30.6446 20.9902 30.4253C21.217 30.206 21.3445 29.9086 21.3445 29.5984C21.3445 29.2883 21.217 28.9909 20.9902 28.7716C20.7634 28.5523 20.4558 28.4291 20.135 28.4291C19.8142 28.4291 19.5066 28.5523 19.2797 28.7716C19.0529 28.9909 18.9255 29.2883 18.9255 29.5984C18.9255 29.9086 19.0529 30.206 19.2797 30.4253C19.5066 30.6446 19.8142 30.7678 20.135 30.7678ZM27.8491 22.255C28.0577 22.4809 28.1675 22.7762 28.1555 23.0788C28.1434 23.3814 28.0104 23.6677 27.7844 23.8774C27.5584 24.0871 27.2571 24.2039 26.9438 24.2031C26.6306 24.2024 26.3299 24.0841 26.105 23.8733C25.3338 23.0941 24.4071 22.4742 23.3809 22.0513C22.3548 21.6284 21.2505 21.4113 20.135 21.413C17.8684 21.413 15.7494 22.2971 14.2013 23.8382C13.9768 24.057 13.6722 24.1812 13.3536 24.184C13.0349 24.1868 12.728 24.068 12.4995 23.8532C12.271 23.6385 12.1394 23.3452 12.1333 23.0372C12.1272 22.7292 12.2471 22.4313 12.4669 22.2082C13.4623 21.2153 14.6542 20.4262 15.9715 19.8878C17.2889 19.3495 18.7048 19.0728 20.135 19.0744C23.0861 19.0744 25.8462 20.2367 27.8491 22.255ZM32.7354 17.2502C32.8454 17.3609 32.9319 17.4915 32.9897 17.6345C33.0476 17.7775 33.0758 17.9301 33.0726 18.0837C33.0695 18.2372 33.0351 18.3887 32.9714 18.5293C32.9077 18.67 32.816 18.7972 32.7015 18.9036C32.587 19.01 32.4519 19.0936 32.304 19.1496C32.1561 19.2055 31.9982 19.2327 31.8394 19.2297C31.6806 19.2267 31.5239 19.1934 31.3784 19.1318C31.2329 19.0703 31.1014 18.9816 30.9913 18.8709C29.5887 17.4541 27.9034 16.3271 26.0374 15.5582C24.1714 14.7892 22.1634 14.3941 20.135 14.397C18.1228 14.3944 16.1306 14.7833 14.2771 15.5407C12.4236 16.2981 10.7467 17.4083 9.3464 18.8054C9.12282 19.0281 8.8169 19.1558 8.49595 19.1604C8.175 19.165 7.8653 19.0461 7.63498 18.83C7.40467 18.6138 7.2726 18.318 7.26784 18.0077C7.26307 17.6974 7.386 17.398 7.60958 17.1753C9.23563 15.5538 11.1825 14.2651 13.3343 13.386C15.4862 12.5069 17.7989 12.0554 20.135 12.0583C22.4896 12.0551 24.8204 12.5136 26.9865 13.406C29.1527 14.2983 31.1092 15.6061 32.7378 17.2502M37.6241 12.2501C37.8327 12.476 37.9426 12.7713 37.9305 13.0739C37.9184 13.3765 37.7854 13.6628 37.5594 13.8725C37.3334 14.0822 37.0321 14.199 36.7189 14.1982C36.4056 14.1975 36.1049 14.0792 35.88 13.8684C33.8459 11.8137 31.4017 10.1793 28.6954 9.06416C25.9891 7.94905 23.0768 7.37643 20.135 7.38094C17.2163 7.37693 14.3267 7.94097 11.6383 9.03946C8.94992 10.138 6.51774 11.7484 4.4867 13.7749C4.37644 13.8868 4.24432 13.9765 4.09799 14.0387C3.95167 14.1009 3.79403 14.1345 3.6342 14.1375C3.47437 14.1404 3.31552 14.1127 3.16683 14.056C3.01814 13.9992 2.88256 13.9145 2.76793 13.8068C2.65331 13.6991 2.56191 13.5704 2.49902 13.4283C2.43614 13.2863 2.40301 13.1335 2.40155 12.979C2.4001 12.8244 2.43035 12.6711 2.49055 12.528C2.55076 12.3848 2.63972 12.2546 2.7523 12.1448C5.00876 9.89415 7.71057 8.10545 10.6969 6.88524C13.6832 5.66504 16.8929 5.03827 20.135 5.04226C23.4027 5.03803 26.6374 5.67461 29.6435 6.91349C32.6495 8.15238 35.3645 9.96783 37.6241 12.2501Z" fill="black"/>
</svg>
