<svg width="20" height="20" viewBox="0 0 20 20" fill="none" xmlns="http://www.w3.org/2000/svg">
<path d="M11.0286 -0.000244141C12.1536 0.00275586 12.7246 0.00875586 13.2176 0.0227559L13.4116 0.0297558C13.6356 0.0377558 13.8566 0.0477558 14.1236 0.0597558C15.1876 0.109756 15.9136 0.277756 16.5506 0.524756C17.2106 0.778756 17.7666 1.12276 18.3226 1.67776C18.8311 2.17765 19.2245 2.78234 19.4756 3.44976C19.7226 4.08676 19.8906 4.81276 19.9406 5.87776C19.9526 6.14376 19.9626 6.36476 19.9706 6.58976L19.9766 6.78376C19.9916 7.27576 19.9976 7.84676 19.9996 8.97176L20.0006 9.71776V11.0278C20.003 11.7572 19.9954 12.4866 19.9776 13.2158L19.9716 13.4098C19.9636 13.6348 19.9536 13.8558 19.9416 14.1218C19.8916 15.1868 19.7216 15.9118 19.4756 16.5498C19.2253 17.2175 18.8317 17.8224 18.3226 18.3218C17.8225 18.8301 17.2179 19.2235 16.5506 19.4748C15.9136 19.7218 15.1876 19.8898 14.1236 19.9398C13.8863 19.9509 13.649 19.9609 13.4116 19.9698L13.2176 19.9758C12.7246 19.9898 12.1536 19.9968 11.0286 19.9988L10.2826 19.9998H8.97358C8.24384 20.0023 7.5141 19.9946 6.78458 19.9768L6.59058 19.9708C6.35319 19.9618 6.11585 19.9514 5.87858 19.9398C4.81458 19.8898 4.08858 19.7218 3.45058 19.4748C2.78325 19.2241 2.17879 18.8306 1.67958 18.3218C1.17062 17.822 0.776801 17.2173 0.525577 16.5498C0.278577 15.9128 0.110577 15.1868 0.0605769 14.1218C0.0494358 13.8845 0.0394357 13.6471 0.030577 13.4098L0.0255771 13.2158C0.00714914 12.4866 -0.00118508 11.7572 0.000577001 11.0278V8.97176C-0.00221397 8.24236 0.00512015 7.51295 0.0225771 6.78376L0.029577 6.58976C0.037577 6.36476 0.047577 6.14376 0.059577 5.87776C0.109577 4.81276 0.277577 4.08776 0.524577 3.44976C0.775691 2.78166 1.1703 2.17678 1.68058 1.67776C2.17967 1.16923 2.78372 0.775743 3.45058 0.524756C4.08858 0.277756 4.81358 0.109756 5.87858 0.0597558C6.14458 0.0477558 6.36658 0.0377558 6.59058 0.0297558L6.78458 0.0237558C7.51377 0.00598857 8.24317 -0.00167884 8.97258 0.000755787L11.0286 -0.000244141ZM10.0006 4.99976C8.67449 4.99976 7.40273 5.52654 6.46504 6.46422C5.52736 7.4019 5.00058 8.67367 5.00058 9.99976C5.00058 11.3258 5.52736 12.5976 6.46504 13.5353C7.40273 14.473 8.67449 14.9998 10.0006 14.9998C11.3267 14.9998 12.5984 14.473 13.5361 13.5353C14.4738 12.5976 15.0006 11.3258 15.0006 9.99976C15.0006 8.67367 14.4738 7.4019 13.5361 6.46422C12.5984 5.52654 11.3267 4.99976 10.0006 4.99976ZM10.0006 6.99976C10.3945 6.99969 10.7847 7.07722 11.1487 7.22793C11.5127 7.37863 11.8434 7.59955 12.122 7.87808C12.4007 8.15661 12.6217 8.48729 12.7725 8.85124C12.9233 9.2152 13.001 9.60529 13.0011 9.99926C13.0011 10.3932 12.9236 10.7833 12.7729 11.1473C12.6222 11.5113 12.4013 11.8421 12.1228 12.1207C11.8442 12.3993 11.5135 12.6204 11.1496 12.7712C10.7856 12.922 10.3955 12.9997 10.0016 12.9998C9.20593 12.9998 8.44287 12.6837 7.88026 12.1211C7.31765 11.5585 7.00158 10.7954 7.00158 9.99976C7.00158 9.20411 7.31765 8.44104 7.88026 7.87844C8.44287 7.31583 9.20593 6.99976 10.0016 6.99976M15.2516 3.49976C14.9201 3.49976 14.6021 3.63145 14.3677 3.86587C14.1333 4.10029 14.0016 4.41824 14.0016 4.74976C14.0016 5.08128 14.1333 5.39922 14.3677 5.63364C14.6021 5.86806 14.9201 5.99976 15.2516 5.99976C15.5831 5.99976 15.901 5.86806 16.1355 5.63364C16.3699 5.39922 16.5016 5.08128 16.5016 4.74976C16.5016 4.41824 16.3699 4.10029 16.1355 3.86587C15.901 3.63145 15.5831 3.49976 15.2516 3.49976Z" fill="currentColor"/>
</svg>
