<svg width="16" height="18" viewBox="0 0 16 18" fill="none" xmlns="http://www.w3.org/2000/svg">
<path d="M12.441 2.82C11.7574 2.03962 11.3807 1.03743 11.381 0H8.29098V12.4C8.26714 13.071 7.98385 13.7066 7.50074 14.1729C7.01764 14.6393 6.37242 14.8999 5.70098 14.9C4.28098 14.9 3.10098 13.74 3.10098 12.3C3.10098 10.58 4.76098 9.29 6.47098 9.82V6.66C3.02098 6.2 0.000976562 8.88 0.000976562 12.3C0.000976562 15.63 2.76098 18 5.69098 18C8.83098 18 11.381 15.45 11.381 12.3V6.01C12.634 6.90985 14.1383 7.39265 15.681 7.39V4.3C15.681 4.3 13.801 4.39 12.441 2.82Z" fill="currentColor"/>
</svg>
